<?xml version="1.0" encoding="UTF-8" standalone="no"?>
<!DOCTYPE svg PUBLIC "-//W3C//DTD SVG 1.1//EN" "http://www.w3.org/Graphics/SVG/1.1/DTD/svg11.dtd">
<svg width="100%" height="100%" viewBox="0 0 1536 1507" version="1.1" xmlns="http://www.w3.org/2000/svg" xmlns:xlink="http://www.w3.org/1999/xlink" xml:space="preserve" xmlns:serif="http://www.serif.com/" style="fill-rule:evenodd;clip-rule:evenodd;stroke-linejoin:round;stroke-miterlimit:2;">
    <g transform="matrix(1,0,0,1,-3.84583,-3.2458)">
        <g transform="matrix(4.16667,0,0,4.16667,0,0)">
            <path d="M156.719,26.759L0.923,362.245L347.589,210.4C342.168,186.958 326.019,136.898 281.025,90.061C281.02,90.056 281.015,90.051 281.01,90.046C231.815,42.695 179.062,27.207 157.272,22.573C157.512,23.944 157.35,25.4 156.719,26.759Z" style="fill:rgb(254,213,78);"/>
            <path d="M274.168,97.287C325.137,150.324 341.056,207.824 345.528,229.923L369.563,219.382C362.43,190.829 352.572,165.792 340.886,143.849C327.008,117.788 310.553,96.081 293.036,78.015C293.014,77.997 292.995,77.976 292.973,77.955C274.892,60.401 253.153,43.912 227.043,30.008C204.524,18.016 178.758,7.949 149.286,0.779L139.731,22.391L138.558,24.916C158.659,28.689 218.691,43.855 273.801,96.907C273.929,97.03 274.051,97.157 274.168,97.287Z" style="fill:rgb(200,78,68);"/>
            <path d="M173.743,110.748C188.755,110.748 201.001,98.503 201.001,83.489C201.001,68.476 188.755,56.231 173.743,56.231C158.729,56.231 146.484,68.476 146.484,83.489C146.484,98.503 158.729,110.748 173.743,110.748Z" style="fill:rgb(198,40,41);"/>
            <path d="M173.743,107.904C187.189,107.904 198.157,96.936 198.157,83.489C198.157,70.042 187.189,59.075 173.743,59.075C160.296,59.075 149.329,70.042 149.329,83.489C149.329,96.936 160.296,107.904 173.743,107.904Z" style="fill:rgb(239,159,122);"/>
            <path d="M187.968,65.236C187.298,68.183 179.283,75.192 176.806,77.669C175.121,79.354 172.364,79.354 170.679,77.669C168.207,75.198 160.182,68.176 159.517,65.238C163.368,62.689 168.329,61.154 173.744,61.154C179.158,61.154 184.118,62.688 187.968,65.236Z" style="fill:rgb(198,40,41);"/>
            <path d="M191.996,97.715C189.049,97.045 182.04,89.03 179.563,86.553C177.878,84.868 177.878,82.111 179.563,80.425C182.034,77.954 189.056,69.929 191.994,69.264C194.543,73.115 196.078,78.076 196.078,83.491C196.078,88.905 194.543,93.865 191.996,97.715Z" style="fill:rgb(198,40,41);"/>
            <path d="M159.517,101.743C160.187,98.796 168.202,91.787 170.679,89.31C172.364,87.624 175.122,87.624 176.806,89.31C179.278,91.781 187.304,98.803 187.968,101.741C184.117,104.29 179.156,105.825 173.741,105.825C168.327,105.825 163.367,104.29 159.517,101.743Z" style="fill:rgb(198,40,41);"/>
            <path d="M155.489,69.264C158.436,69.934 165.445,77.949 167.922,80.426C169.607,82.111 169.607,84.868 167.922,86.553C165.451,89.024 158.429,97.05 155.491,97.715C152.942,93.864 151.407,88.903 151.407,83.488C151.407,78.074 152.941,73.114 155.489,69.264Z" style="fill:rgb(198,40,41);"/>
            <path d="M178.621,72.069C178.392,73.531 175.643,77.01 174.793,78.239C174.215,79.076 173.27,79.076 172.691,78.239C171.844,77.013 169.091,73.528 168.864,72.07C170.184,70.805 171.886,70.043 173.743,70.043C175.6,70.043 177.301,70.805 178.621,72.069Z" style="fill:rgb(246,199,177);"/>
            <path d="M173.743,88.728C176.628,88.728 178.981,86.374 178.981,83.489C178.981,80.604 176.628,78.251 173.743,78.251C170.857,78.251 168.504,80.604 168.504,83.489C168.504,86.374 170.857,88.728 173.743,88.728Z" style="fill:rgb(246,199,177);"/>
            <path d="M185.163,88.369C183.7,88.139 180.222,85.39 178.993,84.54C178.156,83.962 178.156,83.017 178.993,82.438C180.219,81.591 183.704,78.838 185.162,78.61C186.427,79.931 187.189,81.632 187.189,83.49C187.189,85.347 186.427,87.048 185.163,88.369Z" style="fill:rgb(246,199,177);"/>
            <path d="M168.864,94.91C169.093,93.447 171.842,89.969 172.692,88.74C173.27,87.903 174.215,87.903 174.793,88.74C175.641,89.966 178.394,93.451 178.621,94.909C177.301,96.173 175.599,96.935 173.742,96.935C171.885,96.935 170.184,96.174 168.864,94.91Z" style="fill:rgb(246,199,177);"/>
            <path d="M162.322,78.61C163.785,78.84 167.263,81.589 168.492,82.438C169.329,83.017 169.329,83.962 168.492,84.54C167.266,85.388 163.781,88.141 162.323,88.369C161.059,87.048 160.296,85.346 160.296,83.489C160.296,81.632 161.058,79.931 162.322,78.61Z" style="fill:rgb(246,199,177);"/>
            <path d="M168.836,70.96C169.124,70.96 169.358,70.726 169.358,70.439C169.358,70.152 169.124,69.917 168.836,69.917C168.549,69.917 168.315,70.152 168.315,70.439C168.315,70.726 168.549,70.96 168.836,70.96Z" style="fill:rgb(252,229,127);"/>
            <path d="M170.799,69.917C171.086,69.917 171.32,69.683 171.32,69.396C171.32,69.109 171.086,68.874 170.799,68.874C170.512,68.874 170.277,69.109 170.277,69.396C170.277,69.683 170.512,69.917 170.799,69.917Z" style="fill:rgb(252,229,127);"/>
            <path d="M172.762,69.278C173.049,69.278 173.283,69.043 173.283,68.756C173.283,68.469 173.049,68.234 172.762,68.234C172.475,68.234 172.24,68.469 172.24,68.756C172.24,69.043 172.475,69.278 172.762,69.278Z" style="fill:rgb(252,229,127);"/>
            <path d="M174.724,69.277C175.011,69.277 175.245,69.043 175.245,68.756C175.245,68.469 175.011,68.234 174.724,68.234C174.437,68.234 174.203,68.469 174.203,68.756C174.203,69.043 174.437,69.277 174.724,69.277Z" style="fill:rgb(252,229,127);"/>
            <path d="M176.687,69.798C176.974,69.798 177.208,69.564 177.208,69.277C177.208,68.99 176.974,68.756 176.687,68.756C176.399,68.756 176.165,68.99 176.165,69.277C176.165,69.564 176.399,69.798 176.687,69.798Z" style="fill:rgb(252,229,127);"/>
            <path d="M178.649,71.056C178.937,71.056 179.171,70.821 179.171,70.534C179.171,70.247 178.937,70.012 178.649,70.012C178.362,70.012 178.128,70.247 178.128,70.534C178.128,70.821 178.362,71.056 178.649,71.056Z" style="fill:rgb(252,229,127);"/>
            <path d="M187.314,78.583C187.314,78.871 187.081,79.104 186.793,79.104C186.505,79.104 186.272,78.871 186.272,78.583C186.272,78.295 186.505,78.061 186.793,78.061C187.081,78.061 187.314,78.295 187.314,78.583Z" style="fill:rgb(252,229,127);"/>
            <path d="M188.357,80.545C188.357,80.833 188.124,81.067 187.835,81.067C187.548,81.067 187.314,80.833 187.314,80.545C187.314,80.257 187.548,80.024 187.835,80.024C188.124,80.024 188.357,80.257 188.357,80.545Z" style="fill:rgb(252,229,127);"/>
            <path d="M188.998,82.508C188.998,82.796 188.764,83.03 188.476,83.03C188.188,83.03 187.955,82.796 187.955,82.508C187.955,82.22 188.188,81.987 188.476,81.987C188.764,81.987 188.998,82.22 188.998,82.508Z" style="fill:rgb(252,229,127);"/>
            <path d="M188.998,84.471C188.998,84.759 188.764,84.992 188.476,84.992C188.188,84.992 187.955,84.759 187.955,84.471C187.955,84.183 188.188,83.949 188.476,83.949C188.764,83.949 188.998,84.183 188.998,84.471Z" style="fill:rgb(252,229,127);"/>
            <path d="M188.476,86.433C188.476,86.722 188.243,86.955 187.955,86.955C187.667,86.955 187.433,86.722 187.433,86.433C187.433,86.145 187.667,85.912 187.955,85.912C188.243,85.912 188.476,86.145 188.476,86.433Z" style="fill:rgb(252,229,127);"/>
            <path d="M187.219,88.396C187.219,88.684 186.986,88.917 186.698,88.917C186.41,88.917 186.177,88.684 186.177,88.396C186.177,88.108 186.41,87.874 186.698,87.874C186.986,87.874 187.219,88.108 187.219,88.396Z" style="fill:rgb(252,229,127);"/>
            <path d="M178.649,97.061C178.361,97.061 178.127,96.828 178.127,96.54C178.127,96.252 178.361,96.019 178.649,96.019C178.937,96.019 179.17,96.252 179.17,96.54C179.17,96.828 178.937,97.061 178.649,97.061Z" style="fill:rgb(252,229,127);"/>
            <path d="M176.687,98.104C176.398,98.104 176.165,97.871 176.165,97.583C176.165,97.295 176.398,97.061 176.687,97.061C176.975,97.061 177.208,97.295 177.208,97.583C177.208,97.871 176.975,98.104 176.687,98.104Z" style="fill:rgb(252,229,127);"/>
            <path d="M174.724,98.744C174.436,98.744 174.203,98.511 174.203,98.223C174.203,97.935 174.436,97.702 174.724,97.702C175.012,97.702 175.245,97.935 175.245,98.223C175.245,98.511 175.012,98.744 174.724,98.744Z" style="fill:rgb(252,229,127);"/>
            <path d="M172.761,98.744C172.473,98.744 172.24,98.511 172.24,98.223C172.24,97.935 172.473,97.702 172.761,97.702C173.049,97.702 173.283,97.935 173.283,98.223C173.283,98.511 173.049,98.744 172.761,98.744Z" style="fill:rgb(252,229,127);"/>
            <path d="M170.799,98.223C170.511,98.223 170.277,97.99 170.277,97.702C170.277,97.414 170.511,97.18 170.799,97.18C171.086,97.18 171.32,97.414 171.32,97.702C171.32,97.99 171.086,98.223 170.799,98.223Z" style="fill:rgb(252,229,127);"/>
            <path d="M168.836,96.966C168.548,96.966 168.314,96.733 168.314,96.445C168.314,96.157 168.548,95.923 168.836,95.923C169.124,95.923 169.357,96.157 169.357,96.445C169.357,96.733 169.124,96.966 168.836,96.966Z" style="fill:rgb(252,229,127);"/>
            <path d="M160.17,88.396C160.17,88.108 160.404,87.874 160.692,87.874C160.98,87.874 161.213,88.108 161.213,88.396C161.213,88.684 160.98,88.917 160.692,88.917C160.404,88.917 160.17,88.684 160.17,88.396Z" style="fill:rgb(252,229,127);"/>
            <path d="M159.128,86.433C159.128,86.145 159.361,85.912 159.649,85.912C159.937,85.912 160.17,86.145 160.17,86.433C160.17,86.722 159.937,86.955 159.649,86.955C159.361,86.955 159.128,86.722 159.128,86.433Z" style="fill:rgb(252,229,127);"/>
            <path d="M158.488,84.471C158.488,84.183 158.721,83.949 159.009,83.949C159.297,83.949 159.531,84.183 159.531,84.471C159.531,84.759 159.297,84.992 159.009,84.992C158.721,84.992 158.488,84.759 158.488,84.471Z" style="fill:rgb(252,229,127);"/>
            <path d="M158.488,82.508C158.488,82.22 158.721,81.987 159.009,81.987C159.297,81.987 159.531,82.22 159.531,82.508C159.531,82.796 159.297,83.03 159.009,83.03C158.721,83.03 158.488,82.796 158.488,82.508Z" style="fill:rgb(252,229,127);"/>
            <path d="M159.009,80.545C159.009,80.257 159.242,80.024 159.531,80.024C159.819,80.024 160.052,80.257 160.052,80.545C160.052,80.833 159.819,81.067 159.531,81.067C159.242,81.067 159.009,80.833 159.009,80.545Z" style="fill:rgb(252,229,127);"/>
            <path d="M160.266,78.583C160.266,78.295 160.499,78.061 160.787,78.061C161.075,78.061 161.308,78.295 161.308,78.583C161.308,78.871 161.075,79.104 160.787,79.104C160.499,79.104 160.266,78.871 160.266,78.583Z" style="fill:rgb(252,229,127);"/>
            <path d="M240.885,224.349C255.899,224.349 268.144,212.104 268.144,197.09C268.144,182.078 255.899,169.832 240.885,169.832C225.872,169.832 213.627,182.078 213.627,197.09C213.627,212.104 225.872,224.349 240.885,224.349Z" style="fill:rgb(198,40,41);"/>
            <path d="M240.885,221.505C254.333,221.505 265.299,210.538 265.299,197.09C265.299,183.644 254.333,172.677 240.885,172.677C227.439,172.677 216.471,183.644 216.471,197.09C216.471,210.538 227.439,221.505 240.885,221.505Z" style="fill:rgb(239,159,122);"/>
            <path d="M255.111,178.838C254.441,181.785 246.426,188.793 243.949,191.271C242.264,192.956 239.506,192.956 237.822,191.271C235.35,188.799 227.325,181.778 226.66,178.839C230.51,176.291 235.471,174.755 240.887,174.755C246.301,174.755 251.261,176.29 255.111,178.838Z" style="fill:rgb(198,40,41);"/>
            <path d="M259.139,211.316C256.192,210.647 249.183,202.631 246.706,200.155C245.021,198.469 245.021,195.712 246.706,194.027C249.177,191.556 256.199,183.53 259.137,182.866C261.686,186.716 263.221,191.677 263.221,197.092C263.221,202.506 261.687,207.466 259.139,211.316Z" style="fill:rgb(198,40,41);"/>
            <path d="M226.66,215.344C227.331,212.398 235.345,205.388 237.822,202.912C239.507,201.226 242.264,201.226 243.95,202.912C246.421,205.383 254.447,212.405 255.111,215.342C251.26,217.891 246.299,219.426 240.884,219.426C235.47,219.426 230.51,217.892 226.66,215.344Z" style="fill:rgb(198,40,41);"/>
            <path d="M222.632,182.866C225.579,183.536 232.588,191.55 235.065,194.028C236.751,195.712 236.751,198.469 235.065,200.155C232.593,202.626 225.572,210.652 222.633,211.316C220.085,207.465 218.55,202.504 218.55,197.089C218.55,191.676 220.085,186.716 222.632,182.866Z" style="fill:rgb(198,40,41);"/>
            <path d="M245.764,185.67C245.535,187.133 242.786,190.612 241.936,191.841C241.358,192.677 240.413,192.677 239.835,191.841C238.987,190.615 236.235,187.129 236.006,185.671C237.327,184.407 239.029,183.645 240.886,183.645C242.743,183.645 244.444,184.407 245.764,185.67Z" style="fill:rgb(246,199,177);"/>
            <path d="M240.885,202.329C243.771,202.329 246.124,199.976 246.124,197.09C246.124,194.206 243.771,191.852 240.885,191.852C238.001,191.852 235.647,194.206 235.647,197.09C235.647,199.976 238.001,202.329 240.885,202.329Z" style="fill:rgb(246,199,177);"/>
            <path d="M252.306,201.97C250.843,201.741 247.365,198.992 246.136,198.142C245.299,197.564 245.299,196.618 246.136,196.04C247.363,195.193 250.847,192.44 252.305,192.212C253.57,193.533 254.332,195.234 254.332,197.091C254.332,198.948 253.57,200.65 252.306,201.97Z" style="fill:rgb(246,199,177);"/>
            <path d="M236.006,208.511C236.237,207.049 238.985,203.571 239.835,202.341C240.413,201.505 241.359,201.505 241.936,202.341C242.784,203.568 245.537,207.052 245.764,208.51C244.444,209.775 242.743,210.537 240.885,210.537C239.028,210.537 237.327,209.776 236.006,208.511Z" style="fill:rgb(246,199,177);"/>
            <path d="M229.465,192.212C230.927,192.442 234.406,195.191 235.635,196.04C236.471,196.618 236.471,197.564 235.635,198.142C234.409,198.99 230.924,201.743 229.466,201.97C228.202,200.649 227.44,198.948 227.44,197.09C227.44,195.234 228.201,193.533 229.465,192.212Z" style="fill:rgb(246,199,177);"/>
            <path d="M235.979,184.562C236.266,184.562 236.501,184.328 236.501,184.04C236.501,183.753 236.266,183.519 235.979,183.519C235.692,183.519 235.458,183.753 235.458,184.04C235.458,184.328 235.692,184.562 235.979,184.562Z" style="fill:rgb(252,229,127);"/>
            <path d="M237.942,183.519C238.229,183.519 238.463,183.285 238.463,182.998C238.463,182.71 238.229,182.476 237.942,182.476C237.655,182.476 237.42,182.71 237.42,182.998C237.42,183.285 237.655,183.519 237.942,183.519Z" style="fill:rgb(252,229,127);"/>
            <path d="M239.905,182.878C240.192,182.878 240.426,182.644 240.426,182.357C240.426,182.07 240.192,181.836 239.905,181.836C239.618,181.836 239.382,182.07 239.382,182.357C239.382,182.644 239.618,182.878 239.905,182.878Z" style="fill:rgb(252,229,127);"/>
            <path d="M241.867,182.879C242.154,182.879 242.388,182.645 242.388,182.358C242.388,182.071 242.154,181.836 241.867,181.836C241.58,181.836 241.345,182.071 241.345,182.358C241.345,182.645 241.58,182.879 241.867,182.879Z" style="fill:rgb(252,229,127);"/>
            <path d="M243.83,183.401C244.117,183.401 244.351,183.165 244.351,182.878C244.351,182.591 244.117,182.357 243.83,182.357C243.543,182.357 243.308,182.591 243.308,182.878C243.308,183.165 243.543,183.401 243.83,183.401Z" style="fill:rgb(252,229,127);"/>
            <path d="M245.793,184.657C246.08,184.657 246.314,184.422 246.314,184.135C246.314,183.848 246.08,183.614 245.793,183.614C245.505,183.614 245.271,183.848 245.271,184.135C245.271,184.422 245.505,184.657 245.793,184.657Z" style="fill:rgb(252,229,127);"/>
            <path d="M254.458,192.185C254.458,192.473 254.224,192.706 253.936,192.706C253.648,192.706 253.415,192.473 253.415,192.185C253.415,191.897 253.648,191.664 253.936,191.664C254.224,191.664 254.458,191.897 254.458,192.185Z" style="fill:rgb(252,229,127);"/>
            <path d="M255.501,194.147C255.501,194.435 255.267,194.668 254.979,194.668C254.691,194.668 254.458,194.435 254.458,194.147C254.458,193.859 254.691,193.625 254.979,193.625C255.267,193.625 255.501,193.859 255.501,194.147Z" style="fill:rgb(252,229,127);"/>
            <path d="M256.14,196.11C256.14,196.398 255.907,196.631 255.619,196.631C255.332,196.631 255.097,196.398 255.097,196.11C255.097,195.822 255.332,195.588 255.619,195.588C255.907,195.588 256.14,195.822 256.14,196.11Z" style="fill:rgb(252,229,127);"/>
            <path d="M256.14,198.073C256.14,198.36 255.907,198.594 255.619,198.594C255.331,198.594 255.097,198.36 255.097,198.073C255.097,197.785 255.331,197.551 255.619,197.551C255.907,197.551 256.14,197.785 256.14,198.073Z" style="fill:rgb(252,229,127);"/>
            <path d="M255.619,200.035C255.619,200.323 255.385,200.556 255.097,200.556C254.809,200.556 254.577,200.323 254.577,200.035C254.577,199.747 254.809,199.514 255.097,199.514C255.385,199.514 255.619,199.747 255.619,200.035Z" style="fill:rgb(252,229,127);"/>
            <path d="M254.363,201.998C254.363,202.286 254.129,202.519 253.841,202.519C253.553,202.519 253.32,202.286 253.32,201.998C253.32,201.709 253.553,201.476 253.841,201.476C254.129,201.476 254.363,201.709 254.363,201.998Z" style="fill:rgb(252,229,127);"/>
            <path d="M245.792,210.663C245.503,210.663 245.271,210.43 245.271,210.142C245.271,209.854 245.503,209.621 245.792,209.621C246.08,209.621 246.313,209.854 246.313,210.142C246.313,210.43 246.08,210.663 245.792,210.663Z" style="fill:rgb(252,229,127);"/>
            <path d="M243.83,211.706C243.542,211.706 243.308,211.472 243.308,211.184C243.308,210.897 243.542,210.664 243.83,210.664C244.118,210.664 244.351,210.897 244.351,211.184C244.351,211.472 244.118,211.706 243.83,211.706Z" style="fill:rgb(252,229,127);"/>
            <path d="M241.867,212.346C241.579,212.346 241.345,212.113 241.345,211.825C241.345,211.537 241.579,211.303 241.867,211.303C242.155,211.303 242.388,211.537 242.388,211.825C242.388,212.113 242.155,212.346 241.867,212.346Z" style="fill:rgb(252,229,127);"/>
            <path d="M239.904,212.346C239.616,212.346 239.382,212.112 239.382,211.825C239.382,211.537 239.616,211.303 239.904,211.303C240.193,211.303 240.425,211.537 240.425,211.825C240.425,212.112 240.193,212.346 239.904,212.346Z" style="fill:rgb(252,229,127);"/>
            <path d="M237.942,211.825C237.654,211.825 237.42,211.591 237.42,211.303C237.42,211.015 237.654,210.782 237.942,210.782C238.23,210.782 238.463,211.015 238.463,211.303C238.463,211.591 238.23,211.825 237.942,211.825Z" style="fill:rgb(252,229,127);"/>
            <path d="M235.979,210.568C235.691,210.568 235.458,210.334 235.458,210.046C235.458,209.758 235.691,209.526 235.979,209.526C236.267,209.526 236.501,209.758 236.501,210.046C236.501,210.334 236.267,210.568 235.979,210.568Z" style="fill:rgb(252,229,127);"/>
            <path d="M227.314,201.998C227.314,201.709 227.547,201.476 227.835,201.476C228.123,201.476 228.356,201.709 228.356,201.998C228.356,202.286 228.123,202.519 227.835,202.519C227.547,202.519 227.314,202.286 227.314,201.998Z" style="fill:rgb(252,229,127);"/>
            <path d="M226.271,200.035C226.271,199.747 226.504,199.514 226.793,199.514C227.081,199.514 227.314,199.747 227.314,200.035C227.314,200.323 227.081,200.556 226.793,200.556C226.504,200.556 226.271,200.323 226.271,200.035Z" style="fill:rgb(252,229,127);"/>
            <path d="M225.63,198.073C225.63,197.785 225.864,197.551 226.152,197.551C226.44,197.551 226.673,197.785 226.673,198.073C226.673,198.36 226.44,198.594 226.152,198.594C225.864,198.594 225.63,198.36 225.63,198.073Z" style="fill:rgb(252,229,127);"/>
            <path d="M225.63,196.11C225.63,195.822 225.864,195.588 226.152,195.588C226.44,195.588 226.673,195.822 226.673,196.11C226.673,196.398 226.44,196.631 226.152,196.631C225.864,196.631 225.63,196.398 225.63,196.11Z" style="fill:rgb(252,229,127);"/>
            <path d="M226.152,194.147C226.152,193.859 226.385,193.625 226.673,193.625C226.961,193.625 227.195,193.859 227.195,194.147C227.195,194.435 226.961,194.668 226.673,194.668C226.385,194.668 226.152,194.435 226.152,194.147Z" style="fill:rgb(252,229,127);"/>
            <path d="M227.409,192.184C227.409,191.897 227.642,191.664 227.93,191.664C228.218,191.664 228.452,191.897 228.452,192.184C228.452,192.472 228.218,192.706 227.93,192.706C227.642,192.706 227.409,192.472 227.409,192.184Z" style="fill:rgb(252,229,127);"/>
            <path d="M88.499,314.015C103.512,314.015 115.757,301.77 115.757,286.756C115.757,271.744 103.512,259.498 88.499,259.498C73.485,259.498 61.24,271.744 61.24,286.756C61.24,301.77 73.485,314.015 88.499,314.015Z" style="fill:rgb(198,40,41);"/>
            <path d="M88.499,311.171C101.946,311.171 112.913,300.204 112.913,286.756C112.913,273.31 101.946,262.343 88.499,262.343C75.052,262.343 64.085,273.31 64.085,286.756C64.085,300.204 75.052,311.171 88.499,311.171Z" style="fill:rgb(239,159,122);"/>
            <path d="M102.724,268.503C102.054,271.45 94.039,278.459 91.563,280.937C89.877,282.622 87.12,282.622 85.435,280.937C82.963,278.465 74.938,271.444 74.273,268.505C78.124,265.957 83.085,264.421 88.5,264.421C93.914,264.421 98.874,265.957 102.724,268.503Z" style="fill:rgb(198,40,41);"/>
            <path d="M106.752,300.982C103.806,300.313 96.796,292.297 94.319,289.821C92.634,288.135 92.634,285.378 94.319,283.694C96.791,281.222 103.812,273.196 106.751,272.532C109.299,276.382 110.834,281.343 110.834,286.758C110.834,292.172 109.3,297.132 106.752,300.982Z" style="fill:rgb(198,40,41);"/>
            <path d="M74.273,305.01C74.943,302.064 82.959,295.054 85.435,292.578C87.12,290.892 89.877,290.892 91.563,292.578C94.034,295.049 102.06,302.071 102.724,305.008C98.874,307.557 93.913,309.092 88.498,309.092C83.084,309.092 78.124,307.558 74.273,305.01Z" style="fill:rgb(198,40,41);"/>
            <path d="M70.246,272.532C73.192,273.202 80.201,281.216 82.678,283.694C84.363,285.378 84.363,288.136 82.678,289.821C80.207,292.292 73.185,300.318 70.247,300.982C67.699,297.131 66.163,292.17 66.163,286.756C66.163,281.342 67.698,276.382 70.246,272.532Z" style="fill:rgb(198,40,41);"/>
            <path d="M93.377,275.336C93.148,276.799 90.399,280.278 89.549,281.507C88.971,282.343 88.026,282.343 87.448,281.507C86.6,280.281 83.848,276.795 83.62,275.337C84.94,274.073 86.642,273.311 88.499,273.311C90.356,273.311 92.057,274.073 93.377,275.336Z" style="fill:rgb(246,199,177);"/>
            <path d="M88.499,291.996C91.384,291.996 93.737,289.642 93.737,286.756C93.737,283.872 91.384,281.518 88.499,281.518C85.613,281.518 83.26,283.872 83.26,286.756C83.26,289.642 85.613,291.996 88.499,291.996Z" style="fill:rgb(246,199,177);"/>
            <path d="M99.919,291.636C98.457,291.407 94.978,288.658 93.749,287.808C92.913,287.23 92.913,286.285 93.749,285.707C94.976,284.859 98.46,282.106 99.918,281.878C101.183,283.199 101.945,284.9 101.945,286.757C101.945,288.615 101.183,290.316 99.919,291.636Z" style="fill:rgb(246,199,177);"/>
            <path d="M83.62,298.177C83.85,296.715 86.599,293.237 87.448,292.007C88.026,291.171 88.972,291.171 89.55,292.007C90.397,293.234 93.15,296.718 93.377,298.176C92.057,299.441 90.356,300.204 88.499,300.204C86.641,300.204 84.94,299.442 83.62,298.177Z" style="fill:rgb(246,199,177);"/>
            <path d="M77.079,281.878C78.541,282.108 82.02,284.857 83.249,285.707C84.085,286.285 84.085,287.23 83.249,287.808C82.022,288.656 78.538,291.408 77.079,291.636C75.814,290.315 75.053,288.614 75.053,286.756C75.053,284.9 75.814,283.199 77.079,281.878Z" style="fill:rgb(246,199,177);"/>
            <path d="M83.593,274.228C83.88,274.228 84.114,273.994 84.114,273.707C84.114,273.419 83.88,273.185 83.593,273.185C83.306,273.185 83.071,273.419 83.071,273.707C83.071,273.994 83.306,274.228 83.593,274.228Z" style="fill:rgb(252,229,127);"/>
            <path d="M85.555,273.185C85.842,273.185 86.076,272.951 86.076,272.664C86.076,272.376 85.842,272.142 85.555,272.142C85.268,272.142 85.034,272.376 85.034,272.664C85.034,272.951 85.268,273.185 85.555,273.185Z" style="fill:rgb(252,229,127);"/>
            <path d="M87.518,272.545C87.805,272.545 88.04,272.31 88.04,272.023C88.04,271.736 87.805,271.502 87.518,271.502C87.231,271.502 86.996,271.736 86.996,272.023C86.996,272.31 87.231,272.545 87.518,272.545Z" style="fill:rgb(252,229,127);"/>
            <path d="M89.48,272.545C89.768,272.545 90.002,272.31 90.002,272.023C90.002,271.736 89.768,271.502 89.48,271.502C89.193,271.502 88.959,271.736 88.959,272.023C88.959,272.31 89.193,272.545 89.48,272.545Z" style="fill:rgb(252,229,127);"/>
            <path d="M91.443,273.066C91.73,273.066 91.964,272.832 91.964,272.544C91.964,272.257 91.73,272.023 91.443,272.023C91.156,272.023 90.921,272.257 90.921,272.544C90.921,272.832 91.156,273.066 91.443,273.066Z" style="fill:rgb(252,229,127);"/>
            <path d="M93.406,274.323C93.693,274.323 93.927,274.088 93.927,273.801C93.927,273.514 93.693,273.28 93.406,273.28C93.119,273.28 92.884,273.514 92.884,273.801C92.884,274.088 93.119,274.323 93.406,274.323Z" style="fill:rgb(252,229,127);"/>
            <path d="M102.071,281.851C102.071,282.139 101.837,282.373 101.549,282.373C101.261,282.373 101.028,282.139 101.028,281.851C101.028,281.562 101.261,281.33 101.549,281.33C101.837,281.33 102.071,281.562 102.071,281.851Z" style="fill:rgb(252,229,127);"/>
            <path d="M103.113,283.813C103.113,284.101 102.88,284.334 102.592,284.334C102.304,284.334 102.071,284.101 102.071,283.813C102.071,283.525 102.304,283.291 102.592,283.291C102.88,283.291 103.113,283.525 103.113,283.813Z" style="fill:rgb(252,229,127);"/>
            <path d="M103.753,285.776C103.753,286.064 103.52,286.297 103.232,286.297C102.944,286.297 102.71,286.064 102.71,285.776C102.71,285.488 102.944,285.254 103.232,285.254C103.52,285.254 103.753,285.488 103.753,285.776Z" style="fill:rgb(252,229,127);"/>
            <path d="M103.753,287.739C103.753,288.027 103.52,288.259 103.232,288.259C102.944,288.259 102.71,288.027 102.71,287.739C102.71,287.451 102.944,287.217 103.232,287.217C103.52,287.217 103.753,287.451 103.753,287.739Z" style="fill:rgb(252,229,127);"/>
            <path d="M103.232,289.701C103.232,289.989 102.999,290.222 102.71,290.222C102.422,290.222 102.189,289.989 102.189,289.701C102.189,289.413 102.422,289.179 102.71,289.179C102.999,289.179 103.232,289.413 103.232,289.701Z" style="fill:rgb(252,229,127);"/>
            <path d="M101.976,291.664C101.976,291.952 101.742,292.185 101.454,292.185C101.167,292.185 100.933,291.952 100.933,291.664C100.933,291.375 101.167,291.142 101.454,291.142C101.742,291.142 101.976,291.375 101.976,291.664Z" style="fill:rgb(252,229,127);"/>
            <path d="M93.405,300.329C93.117,300.329 92.884,300.095 92.884,299.808C92.884,299.52 93.117,299.287 93.405,299.287C93.693,299.287 93.927,299.52 93.927,299.808C93.927,300.095 93.693,300.329 93.405,300.329Z" style="fill:rgb(252,229,127);"/>
            <path d="M91.442,301.372C91.155,301.372 90.921,301.138 90.921,300.851C90.921,300.563 91.155,300.329 91.442,300.329C91.731,300.329 91.964,300.563 91.964,300.851C91.964,301.138 91.731,301.372 91.442,301.372Z" style="fill:rgb(252,229,127);"/>
            <path d="M89.48,302.012C89.192,302.012 88.959,301.779 88.959,301.491C88.959,301.203 89.192,300.969 89.48,300.969C89.768,300.969 90.002,301.203 90.002,301.491C90.002,301.779 89.768,302.012 89.48,302.012Z" style="fill:rgb(252,229,127);"/>
            <path d="M87.518,302.012C87.23,302.012 86.996,301.779 86.996,301.491C86.996,301.203 87.23,300.969 87.518,300.969C87.806,300.969 88.039,301.203 88.039,301.491C88.039,301.779 87.806,302.012 87.518,302.012Z" style="fill:rgb(252,229,127);"/>
            <path d="M85.555,301.491C85.267,301.491 85.034,301.257 85.034,300.969C85.034,300.681 85.267,300.448 85.555,300.448C85.843,300.448 86.076,300.681 86.076,300.969C86.076,301.257 85.843,301.491 85.555,301.491Z" style="fill:rgb(252,229,127);"/>
            <path d="M83.592,300.234C83.304,300.234 83.071,300 83.071,299.712C83.071,299.424 83.304,299.191 83.592,299.191C83.88,299.191 84.114,299.424 84.114,299.712C84.114,300 83.88,300.234 83.592,300.234Z" style="fill:rgb(252,229,127);"/>
            <path d="M74.927,291.664C74.927,291.375 75.16,291.142 75.448,291.142C75.736,291.142 75.97,291.375 75.97,291.664C75.97,291.952 75.736,292.185 75.448,292.185C75.16,292.185 74.927,291.952 74.927,291.664Z" style="fill:rgb(252,229,127);"/>
            <path d="M73.884,289.701C73.884,289.413 74.117,289.179 74.405,289.179C74.693,289.179 74.927,289.413 74.927,289.701C74.927,289.989 74.693,290.222 74.405,290.222C74.117,290.222 73.884,289.989 73.884,289.701Z" style="fill:rgb(252,229,127);"/>
            <path d="M73.244,287.739C73.244,287.451 73.477,287.217 73.765,287.217C74.053,287.217 74.287,287.451 74.287,287.739C74.287,288.027 74.053,288.259 73.765,288.259C73.477,288.259 73.244,288.027 73.244,287.739Z" style="fill:rgb(252,229,127);"/>
            <path d="M73.244,285.776C73.244,285.488 73.477,285.254 73.766,285.254C74.054,285.254 74.287,285.488 74.287,285.776C74.287,286.064 74.054,286.297 73.766,286.297C73.477,286.297 73.244,286.064 73.244,285.776Z" style="fill:rgb(252,229,127);"/>
            <path d="M73.765,283.813C73.765,283.525 73.999,283.291 74.287,283.291C74.575,283.291 74.808,283.525 74.808,283.813C74.808,284.101 74.575,284.334 74.287,284.334C73.999,284.334 73.765,284.101 73.765,283.813Z" style="fill:rgb(252,229,127);"/>
            <path d="M75.022,281.85C75.022,281.562 75.255,281.33 75.543,281.33C75.831,281.33 76.064,281.562 76.064,281.85C76.064,282.138 75.831,282.372 75.543,282.372C75.255,282.372 75.022,282.138 75.022,281.85Z" style="fill:rgb(252,229,127);"/>
            <path d="M220.773,85.772C224.375,85.772 227.311,82.378 227.311,78.216C227.311,74.053 224.375,70.658 220.773,70.658C217.171,70.658 214.234,74.053 214.234,78.216C214.234,82.378 217.171,85.772 220.773,85.772Z" style="fill:rgb(37,50,56);"/>
            <path d="M221.281,72.629C222.416,72.048 223.881,72.641 224.553,73.953C225.224,75.265 224.849,76.8 223.713,77.381C222.579,77.962 221.113,77.37 220.441,76.058C219.77,74.746 220.146,73.21 221.281,72.629Z" style="fill:rgb(176,190,197);"/>
            <path d="M224.559,81.031C225.169,81.335 225.378,82.155 225.026,82.86C224.673,83.565 223.893,83.89 223.283,83.585C222.672,83.28 222.463,82.461 222.816,81.756C223.168,81.05 223.949,80.726 224.559,81.031Z" style="fill:rgb(176,190,197);"/>
            <path d="M216.705,77.876C217.987,77.219 219.643,77.889 220.402,79.372C221.161,80.854 220.736,82.589 219.454,83.246C218.17,83.902 216.515,83.233 215.756,81.75C214.997,80.268 215.421,78.533 216.705,77.876Z" style="fill:rgb(60,71,76);"/>
            <path d="M201.965,120.536C205.567,120.536 208.504,117.142 208.504,112.979C208.504,108.817 205.567,105.422 201.965,105.422C198.364,105.422 195.427,108.817 195.427,112.979C195.427,117.142 198.364,120.536 201.965,120.536Z" style="fill:rgb(37,50,56);"/>
            <path d="M202.473,107.394C203.609,106.812 205.074,107.404 205.746,108.717C206.418,110.029 206.042,111.563 204.906,112.145C203.771,112.727 202.306,112.134 201.634,110.822C200.962,109.51 201.338,107.975 202.473,107.394Z" style="fill:rgb(176,190,197);"/>
            <path d="M205.752,115.795C206.362,116.1 206.571,116.918 206.218,117.624C205.867,118.329 205.085,118.654 204.476,118.349C203.866,118.044 203.656,117.225 204.008,116.52C204.361,115.814 205.141,115.49 205.752,115.795Z" style="fill:rgb(176,190,197);"/>
            <path d="M197.897,112.64C199.18,111.983 200.835,112.653 201.594,114.136C202.353,115.618 201.929,117.353 200.646,118.009C199.364,118.666 197.708,117.997 196.949,116.514C196.19,115.031 196.614,113.297 197.897,112.64Z" style="fill:rgb(60,71,76);"/>
            <path d="M287.272,148.506C290.874,148.506 293.811,145.112 293.811,140.949C293.811,136.787 290.874,133.392 287.272,133.392C283.67,133.392 280.733,136.787 280.733,140.949C280.733,145.112 283.67,148.506 287.272,148.506Z" style="fill:rgb(37,50,56);"/>
            <path d="M287.78,135.363C288.916,134.782 290.38,135.374 291.052,136.686C291.724,137.999 291.348,139.534 290.212,140.115C289.078,140.696 287.613,140.104 286.941,138.791C286.269,137.479 286.645,135.944 287.78,135.363Z" style="fill:rgb(176,190,197);"/>
            <path d="M291.058,143.765C291.668,144.069 291.877,144.889 291.525,145.594C291.172,146.299 290.392,146.624 289.782,146.319C289.171,146.014 288.962,145.195 289.315,144.49C289.668,143.784 290.448,143.459 291.058,143.765Z" style="fill:rgb(176,190,197);"/>
            <path d="M283.204,140.61C284.486,139.953 286.142,140.623 286.901,142.105C287.66,143.588 287.235,145.322 285.953,145.979C284.669,146.636 283.014,145.967 282.255,144.484C281.496,143.001 281.92,141.267 283.204,140.61Z" style="fill:rgb(60,71,76);"/>
            <path d="M251.833,149.562C255.434,149.562 258.371,146.168 258.371,142.005C258.371,137.843 255.434,134.448 251.833,134.448C248.231,134.448 245.293,137.843 245.293,142.005C245.293,146.168 248.231,149.562 251.833,149.562Z" style="fill:rgb(37,50,56);"/>
            <path d="M252.34,136.419C253.475,135.838 254.941,136.431 255.613,137.743C256.284,139.055 255.908,140.59 254.773,141.171C253.638,141.752 252.172,141.16 251.501,139.848C250.83,138.536 251.205,137 252.34,136.419Z" style="fill:rgb(176,190,197);"/>
            <path d="M255.619,144.821C256.229,145.125 256.438,145.945 256.085,146.65C255.733,147.355 254.953,147.68 254.342,147.375C253.732,147.07 253.523,146.251 253.876,145.546C254.228,144.84 255.008,144.516 255.619,144.821Z" style="fill:rgb(176,190,197);"/>
            <path d="M247.764,141.666C249.046,141.009 250.702,141.679 251.461,143.162C252.22,144.644 251.795,146.378 250.513,147.036C249.23,147.692 247.575,147.023 246.816,145.54C246.056,144.058 246.481,142.323 247.764,141.666Z" style="fill:rgb(60,71,76);"/>
            <path d="M210.059,168.764C213.661,168.764 216.598,165.37 216.598,161.207C216.598,157.045 213.661,153.65 210.059,153.65C206.459,153.65 203.521,157.045 203.521,161.207C203.521,165.37 206.459,168.764 210.059,168.764Z" style="fill:rgb(37,50,56);"/>
            <path d="M210.567,155.622C211.703,155.04 213.168,155.633 213.839,156.945C214.511,158.257 214.135,159.792 213.001,160.373C211.865,160.955 210.4,160.362 209.728,159.05C209.056,157.738 209.432,156.203 210.567,155.622Z" style="fill:rgb(176,190,197);"/>
            <path d="M213.846,164.023C214.456,164.328 214.665,165.147 214.313,165.852C213.96,166.557 213.179,166.882 212.569,166.577C211.96,166.272 211.751,165.453 212.102,164.748C212.456,164.042 213.236,163.718 213.846,164.023Z" style="fill:rgb(176,190,197);"/>
            <path d="M205.991,160.869C207.274,160.211 208.929,160.881 209.689,162.364C210.448,163.846 210.023,165.581 208.74,166.237C207.458,166.894 205.802,166.225 205.043,164.742C204.284,163.259 204.709,161.525 205.991,160.869Z" style="fill:rgb(60,71,76);"/>
            <path d="M170.638,147.024C174.24,147.024 177.177,143.63 177.177,139.467C177.177,135.305 174.24,131.91 170.638,131.91C167.037,131.91 164.1,135.305 164.1,139.467C164.1,143.63 167.037,147.024 170.638,147.024Z" style="fill:rgb(37,50,56);"/>
            <path d="M171.146,133.881C172.281,133.3 173.746,133.893 174.418,135.205C175.09,136.517 174.714,138.051 173.579,138.633C172.443,139.214 170.979,138.622 170.307,137.31C169.635,135.998 170.011,134.462 171.146,133.881Z" style="fill:rgb(176,190,197);"/>
            <path d="M174.424,142.283C175.034,142.587 175.244,143.407 174.891,144.112C174.539,144.817 173.758,145.142 173.148,144.837C172.538,144.532 172.329,143.713 172.681,143.008C173.034,142.302 173.814,141.978 174.424,142.283Z" style="fill:rgb(176,190,197);"/>
            <path d="M166.569,139.128C167.853,138.471 169.508,139.141 170.267,140.623C171.026,142.106 170.602,143.84 169.319,144.497C168.036,145.154 166.38,144.485 165.622,143.002C164.862,141.519 165.287,139.785 166.569,139.128Z" style="fill:rgb(60,71,76);"/>
            <path d="M117.075,165.552C120.676,165.552 123.613,162.158 123.613,157.996C123.613,153.833 120.676,150.438 117.075,150.438C113.473,150.438 110.536,153.833 110.536,157.996C110.536,162.158 113.473,165.552 117.075,165.552Z" style="fill:rgb(37,50,56);"/>
            <path d="M117.583,152.41C118.718,151.828 120.183,152.42 120.855,153.733C121.526,155.045 121.15,156.58 120.015,157.161C118.88,157.742 117.415,157.15 116.743,155.838C116.071,154.525 116.447,152.991 117.583,152.41Z" style="fill:rgb(176,190,197);"/>
            <path d="M120.861,160.811C121.471,161.116 121.68,161.935 121.328,162.64C120.975,163.345 120.195,163.67 119.585,163.365C118.974,163.06 118.765,162.241 119.118,161.536C119.47,160.831 120.251,160.506 120.861,160.811Z" style="fill:rgb(176,190,197);"/>
            <path d="M113.006,157.656C114.289,156.999 115.944,157.669 116.703,159.151C117.462,160.634 117.038,162.369 115.755,163.025C114.472,163.683 112.817,163.013 112.058,161.53C111.298,160.047 111.723,158.313 113.006,157.656Z" style="fill:rgb(60,71,76);"/>
            <path d="M320.737,210.341C324.338,210.341 327.276,206.946 327.276,202.784C327.276,198.622 324.338,195.227 320.737,195.227C317.135,195.227 314.199,198.622 314.199,202.784C314.199,206.946 317.135,210.341 320.737,210.341Z" style="fill:rgb(37,50,56);"/>
            <path d="M321.246,197.198C322.38,196.617 323.845,197.209 324.517,198.521C325.189,199.833 324.813,201.369 323.678,201.95C322.543,202.531 321.078,201.939 320.406,200.626C319.734,199.314 320.11,197.779 321.246,197.198Z" style="fill:rgb(176,190,197);"/>
            <path d="M324.523,205.599C325.133,205.904 325.342,206.723 324.99,207.428C324.638,208.134 323.858,208.458 323.248,208.154C322.637,207.848 322.427,207.03 322.781,206.324C323.132,205.619 323.914,205.294 324.523,205.599Z" style="fill:rgb(176,190,197);"/>
            <path d="M316.668,202.445C317.952,201.788 319.607,202.457 320.366,203.94C321.126,205.422 320.701,207.157 319.418,207.814C318.135,208.471 316.48,207.801 315.72,206.319C314.961,204.836 315.386,203.101 316.668,202.445Z" style="fill:rgb(60,71,76);"/>
            <path d="M284.839,190.662C288.441,190.662 291.378,187.267 291.378,183.104C291.378,178.942 288.441,175.547 284.839,175.547C281.239,175.547 278.301,178.942 278.301,183.104C278.301,187.267 281.239,190.662 284.839,190.662Z" style="fill:rgb(37,50,56);"/>
            <path d="M285.348,177.519C286.483,176.937 287.948,177.53 288.62,178.842C289.292,180.154 288.916,181.689 287.781,182.27C286.645,182.852 285.18,182.259 284.508,180.947C283.836,179.635 284.212,178.1 285.348,177.519Z" style="fill:rgb(176,190,197);"/>
            <path d="M288.627,185.92C289.236,186.225 289.445,187.043 289.093,187.749C288.741,188.455 287.96,188.779 287.35,188.474C286.74,188.169 286.531,187.35 286.883,186.645C287.235,185.94 288.016,185.615 288.627,185.92Z" style="fill:rgb(176,190,197);"/>
            <path d="M280.771,182.765C282.054,182.109 283.71,182.778 284.468,184.261C285.228,185.744 284.803,187.478 283.52,188.135C282.238,188.791 280.583,188.123 279.823,186.639C279.064,185.157 279.489,183.422 280.771,182.765Z" style="fill:rgb(60,71,76);"/>
            <path d="M133.918,128.496C137.52,128.496 140.458,125.101 140.458,120.939C140.458,116.776 137.52,113.381 133.918,113.381C130.317,113.381 127.38,116.776 127.38,120.939C127.38,125.101 130.317,128.496 133.918,128.496Z" style="fill:rgb(37,50,56);"/>
            <path d="M134.426,115.353C135.562,114.771 137.027,115.364 137.698,116.676C138.37,117.988 137.995,119.523 136.859,120.104C135.724,120.686 134.259,120.093 133.587,118.781C132.915,117.469 133.291,115.934 134.426,115.353Z" style="fill:rgb(176,190,197);"/>
            <path d="M137.705,123.754C138.315,124.059 138.524,124.878 138.171,125.583C137.819,126.289 137.039,126.613 136.429,126.308C135.818,126.003 135.609,125.185 135.961,124.479C136.314,123.774 137.094,123.449 137.705,123.754Z" style="fill:rgb(176,190,197);"/>
            <path d="M129.85,120.6C131.133,119.943 132.788,120.612 133.547,122.095C134.307,123.578 133.882,125.312 132.599,125.969C131.316,126.625 129.661,125.956 128.902,124.474C128.143,122.991 128.567,121.256 129.85,120.6Z" style="fill:rgb(60,71,76);"/>
            <path d="M103.034,203.369C106.636,203.369 109.573,199.974 109.573,195.811C109.573,191.649 106.636,188.254 103.034,188.254C99.433,188.254 96.496,191.649 96.496,195.811C96.496,199.974 99.433,203.369 103.034,203.369Z" style="fill:rgb(37,50,56);"/>
            <path d="M103.542,190.226C104.677,189.644 106.142,190.237 106.814,191.549C107.486,192.861 107.11,194.396 105.975,194.977C104.839,195.558 103.375,194.966 102.703,193.654C102.031,192.342 102.407,190.807 103.542,190.226Z" style="fill:rgb(176,190,197);"/>
            <path d="M106.82,198.627C107.431,198.932 107.64,199.751 107.287,200.457C106.935,201.162 106.154,201.486 105.544,201.181C104.934,200.876 104.725,200.057 105.077,199.352C105.43,198.647 106.21,198.322 106.82,198.627Z" style="fill:rgb(176,190,197);"/>
            <path d="M98.965,195.472C100.249,194.816 101.904,195.485 102.663,196.967C103.422,198.451 102.998,200.185 101.715,200.842C100.432,201.498 98.776,200.829 98.017,199.346C97.258,197.864 97.683,196.129 98.965,195.472Z" style="fill:rgb(60,71,76);"/>
            <path d="M189.503,222.822C193.105,222.822 196.043,219.427 196.043,215.265C196.043,211.102 193.105,207.707 189.503,207.707C185.902,207.707 182.964,211.102 182.964,215.265C182.964,219.427 185.902,222.822 189.503,222.822Z" style="fill:rgb(37,50,56);"/>
            <path d="M190.011,209.679C191.147,209.098 192.612,209.69 193.283,211.002C193.956,212.314 193.58,213.849 192.444,214.43C191.309,215.012 189.843,214.419 189.172,213.107C188.501,211.795 188.876,210.26 190.011,209.679Z" style="fill:rgb(176,190,197);"/>
            <path d="M193.29,218.081C193.9,218.385 194.109,219.204 193.756,219.91C193.404,220.615 192.624,220.939 192.013,220.634C191.403,220.33 191.194,219.51 191.546,218.805C191.899,218.1 192.679,217.776 193.29,218.081Z" style="fill:rgb(176,190,197);"/>
            <path d="M185.435,214.925C186.718,214.269 188.374,214.938 189.132,216.421C189.891,217.904 189.466,219.638 188.184,220.294C186.901,220.952 185.246,220.283 184.486,218.799C183.728,217.317 184.152,215.582 185.435,214.925Z" style="fill:rgb(60,71,76);"/>
            <path d="M80.355,250.446C83.957,250.446 86.894,247.051 86.894,242.888C86.894,238.726 83.957,235.332 80.355,235.332C76.753,235.332 73.816,238.726 73.816,242.888C73.816,247.051 76.753,250.446 80.355,250.446Z" style="fill:rgb(37,50,56);"/>
            <path d="M80.863,237.302C81.998,236.721 83.463,237.314 84.135,238.626C84.807,239.938 84.431,241.473 83.295,242.054C82.16,242.636 80.695,242.043 80.023,240.731C79.352,239.419 79.728,237.884 80.863,237.302Z" style="fill:rgb(176,190,197);"/>
            <path d="M84.141,245.704C84.751,246.009 84.96,246.828 84.608,247.533C84.255,248.239 83.475,248.563 82.865,248.258C82.254,247.954 82.045,247.134 82.398,246.429C82.75,245.724 83.531,245.399 84.141,245.704Z" style="fill:rgb(176,190,197);"/>
            <path d="M76.287,242.549C77.569,241.893 79.225,242.562 79.984,244.044C80.743,245.528 80.318,247.262 79.036,247.918C77.752,248.576 76.097,247.906 75.338,246.423C74.579,244.941 75.003,243.207 76.287,242.549Z" style="fill:rgb(60,71,76);"/>
            <path d="M121.393,242.204C124.995,242.204 127.932,238.809 127.932,234.647C127.932,230.485 124.995,227.09 121.393,227.09C117.792,227.09 114.855,230.485 114.855,234.647C114.855,238.809 117.792,242.204 121.393,242.204Z" style="fill:rgb(37,50,56);"/>
            <path d="M121.901,229.061C123.036,228.48 124.501,229.073 125.173,230.384C125.845,231.697 125.469,233.232 124.334,233.813C123.198,234.394 121.733,233.801 121.062,232.49C120.39,231.177 120.766,229.642 121.901,229.061Z" style="fill:rgb(176,190,197);"/>
            <path d="M125.179,237.462C125.79,237.767 125.999,238.586 125.646,239.291C125.293,239.997 124.513,240.322 123.903,240.016C123.293,239.711 123.084,238.893 123.436,238.187C123.789,237.482 124.569,237.158 125.179,237.462Z" style="fill:rgb(176,190,197);"/>
            <path d="M117.324,234.308C118.607,233.651 120.263,234.321 121.022,235.803C121.781,237.286 121.356,239.02 120.073,239.677C118.791,240.334 117.135,239.665 116.376,238.182C115.617,236.699 116.042,234.964 117.324,234.308Z" style="fill:rgb(60,71,76);"/>
            <path d="M185.555,262.723C189.157,262.723 192.094,259.329 192.094,255.165C192.094,251.003 189.157,247.609 185.555,247.609C181.954,247.609 179.016,251.003 179.016,255.165C179.016,259.329 181.954,262.723 185.555,262.723Z" style="fill:rgb(37,50,56);"/>
            <path d="M186.063,249.581C187.198,248.998 188.664,249.591 189.335,250.904C190.007,252.215 189.631,253.75 188.496,254.332C187.36,254.914 185.896,254.321 185.224,253.008C184.552,251.697 184.928,250.162 186.063,249.581Z" style="fill:rgb(176,190,197);"/>
            <path d="M189.341,257.982C189.952,258.287 190.161,259.106 189.808,259.811C189.456,260.516 188.675,260.84 188.065,260.536C187.455,260.231 187.246,259.412 187.598,258.707C187.951,258.001 188.731,257.676 189.341,257.982Z" style="fill:rgb(176,190,197);"/>
            <path d="M181.487,254.827C182.77,254.17 184.425,254.839 185.184,256.323C185.943,257.805 185.519,259.54 184.236,260.197C182.953,260.853 181.297,260.184 180.538,258.701C179.779,257.218 180.204,255.484 181.487,254.827Z" style="fill:rgb(60,71,76);"/>
            <path d="M145.606,214.445C160.62,214.445 172.864,202.2 172.864,187.186C172.864,172.173 160.62,159.928 145.606,159.928C130.593,159.928 118.348,172.173 118.348,187.186C118.348,202.2 130.593,214.445 145.606,214.445Z" style="fill:rgb(198,40,41);"/>
            <path d="M145.606,211.601C159.053,211.601 170.02,200.633 170.02,187.186C170.02,173.74 159.053,162.772 145.606,162.772C132.16,162.772 121.192,173.74 121.192,187.186C121.192,200.633 132.16,211.601 145.606,211.601Z" style="fill:rgb(239,159,122);"/>
            <path d="M159.832,168.934C159.162,171.88 151.147,178.889 148.67,181.367C146.985,183.051 144.228,183.051 142.542,181.367C140.071,178.895 132.045,171.873 131.381,168.935C135.231,166.387 140.192,164.852 145.607,164.852C151.021,164.852 155.981,166.386 159.832,168.934Z" style="fill:rgb(198,40,41);"/>
            <path d="M163.859,201.413C160.913,200.743 153.903,192.727 151.427,190.25C149.741,188.566 149.741,185.808 151.427,184.123C153.898,181.652 160.92,173.626 163.858,172.961C166.407,176.812 167.941,181.773 167.941,187.188C167.941,192.602 166.407,197.562 163.859,201.413Z" style="fill:rgb(198,40,41);"/>
            <path d="M131.381,205.44C132.051,202.494 140.065,195.484 142.543,193.007C144.228,191.322 146.985,191.322 148.67,193.007C151.142,195.479 159.167,202.5 159.832,205.438C155.981,207.987 151.02,209.522 145.605,209.522C140.191,209.522 135.231,207.988 131.381,205.44Z" style="fill:rgb(198,40,41);"/>
            <path d="M127.353,172.961C130.299,173.631 137.309,181.646 139.786,184.123C141.471,185.808 141.471,188.566 139.786,190.25C137.314,192.722 130.293,200.748 127.355,201.413C124.806,197.561 123.271,192.601 123.271,187.186C123.271,181.772 124.805,176.811 127.353,172.961Z" style="fill:rgb(198,40,41);"/>
            <path d="M150.485,175.767C150.255,177.229 147.506,180.707 146.657,181.937C146.079,182.773 145.133,182.773 144.555,181.937C143.708,180.71 140.955,177.226 140.727,175.767C142.048,174.503 143.749,173.741 145.606,173.741C147.463,173.741 149.165,174.502 150.485,175.767Z" style="fill:rgb(246,199,177);"/>
            <path d="M145.606,192.425C148.492,192.425 150.845,190.072 150.845,187.187C150.845,184.301 148.492,181.949 145.606,181.949C142.721,181.949 140.368,184.301 140.368,187.187C140.368,190.072 142.721,192.425 145.606,192.425Z" style="fill:rgb(246,199,177);"/>
            <path d="M157.026,192.066C155.564,191.836 152.085,189.087 150.856,188.238C150.02,187.66 150.02,186.714 150.856,186.136C152.083,185.289 155.567,182.536 157.025,182.308C158.291,183.628 159.052,185.33 159.052,187.187C159.052,189.044 158.291,190.746 157.026,192.066Z" style="fill:rgb(246,199,177);"/>
            <path d="M140.727,198.607C140.957,197.145 143.706,193.666 144.555,192.437C145.133,191.601 146.079,191.601 146.657,192.437C147.504,193.664 150.257,197.148 150.485,198.606C149.165,199.872 147.463,200.632 145.606,200.632C143.749,200.632 142.047,199.872 140.727,198.607Z" style="fill:rgb(246,199,177);"/>
            <path d="M134.186,182.308C135.648,182.538 139.127,185.287 140.356,186.136C141.192,186.714 141.192,187.66 140.356,188.238C139.129,189.085 135.645,191.838 134.187,192.066C132.922,190.745 132.16,189.043 132.16,187.186C132.16,185.33 132.921,183.628 134.186,182.308Z" style="fill:rgb(246,199,177);"/>
            <path d="M140.7,174.658C140.987,174.658 141.221,174.423 141.221,174.136C141.221,173.849 140.987,173.615 140.7,173.615C140.413,173.615 140.178,173.849 140.178,174.136C140.178,174.423 140.413,174.658 140.7,174.658Z" style="fill:rgb(252,229,127);"/>
            <path d="M142.663,173.615C142.95,173.615 143.184,173.38 143.184,173.093C143.184,172.806 142.95,172.572 142.663,172.572C142.376,172.572 142.141,172.806 142.141,173.093C142.141,173.38 142.376,173.615 142.663,173.615Z" style="fill:rgb(252,229,127);"/>
            <path d="M144.625,172.975C144.912,172.975 145.147,172.741 145.147,172.454C145.147,172.166 144.912,171.932 144.625,171.932C144.338,171.932 144.104,172.166 144.104,172.454C144.104,172.741 144.338,172.975 144.625,172.975Z" style="fill:rgb(252,229,127);"/>
            <path d="M146.588,172.975C146.875,172.975 147.109,172.741 147.109,172.454C147.109,172.166 146.875,171.932 146.588,171.932C146.301,171.932 146.066,172.166 146.066,172.454C146.066,172.741 146.301,172.975 146.588,172.975Z" style="fill:rgb(252,229,127);"/>
            <path d="M148.55,173.497C148.837,173.497 149.072,173.262 149.072,172.975C149.072,172.688 148.837,172.454 148.55,172.454C148.263,172.454 148.029,172.688 148.029,172.975C148.029,173.262 148.263,173.497 148.55,173.497Z" style="fill:rgb(252,229,127);"/>
            <path d="M150.513,174.752C150.8,174.752 151.035,174.519 151.035,174.231C151.035,173.944 150.8,173.709 150.513,173.709C150.226,173.709 149.991,173.944 149.991,174.231C149.991,174.519 150.226,174.752 150.513,174.752Z" style="fill:rgb(252,229,127);"/>
            <path d="M159.178,182.281C159.178,182.569 158.945,182.802 158.657,182.802C158.369,182.802 158.135,182.569 158.135,182.281C158.135,181.993 158.369,181.759 158.657,181.759C158.945,181.759 159.178,181.993 159.178,182.281Z" style="fill:rgb(252,229,127);"/>
            <path d="M160.221,184.243C160.221,184.531 159.987,184.764 159.7,184.764C159.412,184.764 159.178,184.531 159.178,184.243C159.178,183.955 159.412,183.721 159.7,183.721C159.987,183.721 160.221,183.955 160.221,184.243Z" style="fill:rgb(252,229,127);"/>
            <path d="M160.861,186.206C160.861,186.494 160.627,186.727 160.339,186.727C160.052,186.727 159.818,186.494 159.818,186.206C159.818,185.917 160.052,185.684 160.339,185.684C160.627,185.684 160.861,185.917 160.861,186.206Z" style="fill:rgb(252,229,127);"/>
            <path d="M160.861,188.168C160.861,188.457 160.627,188.69 160.339,188.69C160.051,188.69 159.818,188.457 159.818,188.168C159.818,187.88 160.051,187.647 160.339,187.647C160.627,187.647 160.861,187.88 160.861,188.168Z" style="fill:rgb(252,229,127);"/>
            <path d="M160.339,190.13C160.339,190.418 160.106,190.652 159.818,190.652C159.53,190.652 159.297,190.418 159.297,190.13C159.297,189.843 159.53,189.61 159.818,189.61C160.106,189.61 160.339,189.843 160.339,190.13Z" style="fill:rgb(252,229,127);"/>
            <path d="M159.083,192.093C159.083,192.381 158.85,192.615 158.562,192.615C158.274,192.615 158.041,192.381 158.041,192.093C158.041,191.805 158.274,191.572 158.562,191.572C158.85,191.572 159.083,191.805 159.083,192.093Z" style="fill:rgb(252,229,127);"/>
            <path d="M150.512,200.758C150.225,200.758 149.991,200.526 149.991,200.238C149.991,199.95 150.225,199.716 150.512,199.716C150.8,199.716 151.034,199.95 151.034,200.238C151.034,200.526 150.8,200.758 150.512,200.758Z" style="fill:rgb(252,229,127);"/>
            <path d="M148.55,201.802C148.262,201.802 148.029,201.568 148.029,201.281C148.029,200.993 148.262,200.759 148.55,200.759C148.838,200.759 149.071,200.993 149.071,201.281C149.071,201.568 148.838,201.802 148.55,201.802Z" style="fill:rgb(252,229,127);"/>
            <path d="M146.587,202.442C146.299,202.442 146.066,202.208 146.066,201.92C146.066,201.632 146.299,201.399 146.587,201.399C146.876,201.399 147.109,201.632 147.109,201.92C147.109,202.208 146.876,202.442 146.587,202.442Z" style="fill:rgb(252,229,127);"/>
            <path d="M144.625,202.442C144.337,202.442 144.104,202.208 144.104,201.92C144.104,201.632 144.337,201.399 144.625,201.399C144.913,201.399 145.146,201.632 145.146,201.92C145.146,202.208 144.913,202.442 144.625,202.442Z" style="fill:rgb(252,229,127);"/>
            <path d="M142.662,201.92C142.374,201.92 142.141,201.687 142.141,201.399C142.141,201.111 142.374,200.877 142.662,200.877C142.95,200.877 143.184,201.111 143.184,201.399C143.184,201.687 142.95,201.92 142.662,201.92Z" style="fill:rgb(252,229,127);"/>
            <path d="M140.7,200.664C140.412,200.664 140.178,200.43 140.178,200.142C140.178,199.854 140.412,199.622 140.7,199.622C140.988,199.622 141.221,199.854 141.221,200.142C141.221,200.43 140.988,200.664 140.7,200.664Z" style="fill:rgb(252,229,127);"/>
            <path d="M132.034,192.093C132.034,191.805 132.268,191.572 132.556,191.572C132.843,191.572 133.077,191.805 133.077,192.093C133.077,192.381 132.843,192.615 132.556,192.615C132.268,192.615 132.034,192.381 132.034,192.093Z" style="fill:rgb(252,229,127);"/>
            <path d="M130.991,190.13C130.991,189.843 131.225,189.61 131.513,189.61C131.801,189.61 132.034,189.843 132.034,190.13C132.034,190.418 131.801,190.652 131.513,190.652C131.225,190.652 130.991,190.418 130.991,190.13Z" style="fill:rgb(252,229,127);"/>
            <path d="M130.351,188.168C130.351,187.88 130.585,187.647 130.873,187.647C131.161,187.647 131.394,187.88 131.394,188.168C131.394,188.457 131.161,188.69 130.873,188.69C130.585,188.69 130.351,188.457 130.351,188.168Z" style="fill:rgb(252,229,127);"/>
            <path d="M130.351,186.206C130.351,185.917 130.585,185.684 130.873,185.684C131.161,185.684 131.394,185.917 131.394,186.206C131.394,186.494 131.161,186.727 130.873,186.727C130.585,186.727 130.351,186.494 130.351,186.206Z" style="fill:rgb(252,229,127);"/>
            <path d="M130.873,184.243C130.873,183.955 131.106,183.721 131.394,183.721C131.682,183.721 131.916,183.955 131.916,184.243C131.916,184.531 131.682,184.764 131.394,184.764C131.106,184.764 130.873,184.531 130.873,184.243Z" style="fill:rgb(252,229,127);"/>
            <path d="M132.129,182.28C132.129,181.993 132.362,181.759 132.65,181.759C132.939,181.759 133.172,181.993 133.172,182.28C133.172,182.568 132.939,182.802 132.65,182.802C132.362,182.802 132.129,182.568 132.129,182.28Z" style="fill:rgb(252,229,127);"/>
            <path d="M236.672,251.3C240.274,251.3 243.211,247.905 243.211,243.743C243.211,239.581 240.274,236.185 236.672,236.185C233.071,236.185 230.134,239.581 230.134,243.743C230.134,247.905 233.071,251.3 236.672,251.3Z" style="fill:rgb(37,50,56);"/>
            <path d="M237.18,238.157C238.316,237.576 239.781,238.168 240.453,239.48C241.125,240.792 240.749,242.327 239.614,242.909C238.478,243.49 237.013,242.897 236.341,241.585C235.669,240.273 236.045,238.738 237.18,238.157Z" style="fill:rgb(176,190,197);"/>
            <path d="M240.459,246.558C241.069,246.863 241.278,247.682 240.925,248.387C240.574,249.092 239.793,249.417 239.183,249.113C238.573,248.807 238.364,247.989 238.715,247.283C239.068,246.578 239.848,246.253 240.459,246.558Z" style="fill:rgb(176,190,197);"/>
            <path d="M232.604,243.404C233.887,242.747 235.543,243.416 236.301,244.899C237.061,246.381 236.636,248.116 235.353,248.773C234.071,249.429 232.415,248.76 231.656,247.278C230.897,245.794 231.322,244.06 232.604,243.404Z" style="fill:rgb(60,71,76);"/>
            <path d="M142.937,288.045C146.539,288.045 149.476,284.65 149.476,280.488C149.476,276.326 146.539,272.931 142.937,272.931C139.336,272.931 136.398,276.326 136.398,280.488C136.398,284.65 139.336,288.045 142.937,288.045Z" style="fill:rgb(37,50,56);"/>
            <path d="M143.445,274.902C144.58,274.321 146.045,274.914 146.717,276.225C147.389,277.538 147.013,279.073 145.877,279.654C144.742,280.235 143.277,279.643 142.606,278.331C141.934,277.018 142.309,275.483 143.445,274.902Z" style="fill:rgb(176,190,197);"/>
            <path d="M146.723,283.303C147.334,283.608 147.543,284.427 147.19,285.132C146.837,285.838 146.057,286.163 145.447,285.858C144.836,285.552 144.627,284.734 144.98,284.029C145.333,283.323 146.113,282.998 146.723,283.303Z" style="fill:rgb(176,190,197);"/>
            <path d="M138.868,280.149C140.151,279.492 141.807,280.162 142.566,281.644C143.325,283.127 142.9,284.862 141.617,285.518C140.335,286.175 138.679,285.505 137.92,284.023C137.161,282.54 137.585,280.806 138.868,280.149Z" style="fill:rgb(60,71,76);"/>
            <path d="M31.71,338.023C35.311,338.023 38.249,334.628 38.249,330.466C38.249,326.303 35.311,322.909 31.71,322.909C28.108,322.909 25.17,326.303 25.17,330.466C25.17,334.628 28.108,338.023 31.71,338.023Z" style="fill:rgb(37,50,56);"/>
            <path d="M32.217,324.88C33.353,324.298 34.817,324.891 35.489,326.204C36.161,327.515 35.786,329.05 34.65,329.631C33.515,330.213 32.05,329.621 31.378,328.308C30.706,326.997 31.082,325.461 32.217,324.88Z" style="fill:rgb(176,190,197);"/>
            <path d="M35.496,333.282C36.106,333.586 36.315,334.405 35.962,335.111C35.61,335.816 34.83,336.14 34.219,335.835C33.609,335.531 33.4,334.711 33.752,334.006C34.105,333.301 34.885,332.976 35.496,333.282Z" style="fill:rgb(176,190,197);"/>
            <path d="M27.641,330.126C28.924,329.47 30.579,330.139 31.338,331.623C32.097,333.105 31.673,334.839 30.39,335.496C29.107,336.153 27.452,335.484 26.692,334C25.934,332.518 26.358,330.784 27.641,330.126Z" style="fill:rgb(60,71,76);"/>
            <path d="M49.699,311.757C53.3,311.757 56.237,308.363 56.237,304.201C56.237,300.039 53.3,296.643 49.699,296.643C46.097,296.643 43.16,300.039 43.16,304.201C43.16,308.363 46.097,311.757 49.699,311.757Z" style="fill:rgb(37,50,56);"/>
            <path d="M50.207,298.615C51.342,298.034 52.807,298.626 53.479,299.938C54.15,301.249 53.775,302.785 52.64,303.367C51.504,303.948 50.039,303.355 49.367,302.043C48.696,300.731 49.071,299.196 50.207,298.615Z" style="fill:rgb(176,190,197);"/>
            <path d="M53.485,307.016C54.095,307.321 54.304,308.14 53.952,308.845C53.599,309.55 52.819,309.874 52.209,309.57C51.598,309.265 51.39,308.446 51.742,307.741C52.094,307.036 52.875,306.711 53.485,307.016Z" style="fill:rgb(176,190,197);"/>
            <path d="M45.63,303.862C46.913,303.205 48.568,303.873 49.328,305.357C50.087,306.839 49.662,308.574 48.379,309.231C47.096,309.887 45.441,309.218 44.682,307.736C43.922,306.252 44.347,304.518 45.63,303.862Z" style="fill:rgb(60,71,76);"/>
            <path d="M215.815,129.854C225.266,120.403 237.413,114.975 249.963,113.787C262.507,112.6 275.455,115.654 286.515,123.166L282.989,128.36C273.176,121.696 261.688,118.986 250.554,120.04C239.426,121.093 228.652,125.911 220.262,134.301L215.815,129.854Z" style="fill:rgb(104,160,66);fill-rule:nonzero;"/>
            <path d="M209.085,229.359C199.634,238.81 187.488,244.238 174.938,245.426C162.393,246.613 149.446,243.559 138.386,236.046L141.913,230.852C151.724,237.517 163.213,240.226 174.347,239.172C185.475,238.119 196.25,233.301 204.639,224.912L209.085,229.359Z" style="fill:rgb(104,160,66);fill-rule:nonzero;"/>
            <path d="M64.297,333.431C55.564,332.634 47.728,328.79 41.859,322.961C35.994,317.136 32.098,309.327 31.241,300.597L35.34,300.194C36.1,307.938 39.558,314.868 44.764,320.039C49.967,325.206 56.92,328.615 64.672,329.322L64.297,333.431Z" style="fill:rgb(104,160,66);fill-rule:nonzero;"/>
        </g>
    </g>
</svg>
